<mxfile host="app.diagrams.net" modified="2023-11-20T04:18:54.136Z" agent="Mozilla/5.0 (Windows NT 10.0; Win64; x64) AppleWebKit/537.36 (KHTML, like Gecko) Chrome/119.0.0.0 Safari/537.36" etag="jUPls_Tw_HoB41vl82BG" version="22.1.3" type="github">
  <diagram name="第 1 页" id="FUREuoXkIYIF7jrdTJ14">
    <mxGraphModel dx="872" dy="1607" grid="0" gridSize="10" guides="1" tooltips="1" connect="1" arrows="1" fold="1" page="1" pageScale="1" pageWidth="827" pageHeight="1169" math="0" shadow="0">
      <root>
        <mxCell id="0" />
        <mxCell id="1" parent="0" />
        <mxCell id="4h4NSP-yn3sb603M1jfn-1" value="f2" style="ellipse;whiteSpace=wrap;html=1;" vertex="1" parent="1">
          <mxGeometry x="64" y="96" width="41" height="28" as="geometry" />
        </mxCell>
        <mxCell id="4h4NSP-yn3sb603M1jfn-15" style="edgeStyle=orthogonalEdgeStyle;rounded=0;orthogonalLoop=1;jettySize=auto;html=1;exitX=0.5;exitY=0;exitDx=0;exitDy=0;entryX=0.5;entryY=0;entryDx=0;entryDy=0;" edge="1" parent="1" source="4h4NSP-yn3sb603M1jfn-2" target="4h4NSP-yn3sb603M1jfn-4">
          <mxGeometry relative="1" as="geometry">
            <Array as="points">
              <mxPoint x="111" y="47" />
              <mxPoint x="525" y="47" />
            </Array>
          </mxGeometry>
        </mxCell>
        <mxCell id="4h4NSP-yn3sb603M1jfn-104" value="__proto__" style="edgeLabel;html=1;align=center;verticalAlign=middle;resizable=0;points=[];" vertex="1" connectable="0" parent="4h4NSP-yn3sb603M1jfn-15">
          <mxGeometry x="0.0647" y="-1" relative="1" as="geometry">
            <mxPoint as="offset" />
          </mxGeometry>
        </mxCell>
        <mxCell id="4h4NSP-yn3sb603M1jfn-2" value="f1" style="ellipse;whiteSpace=wrap;html=1;" vertex="1" parent="1">
          <mxGeometry x="91" y="99" width="40" height="30" as="geometry" />
        </mxCell>
        <mxCell id="4h4NSP-yn3sb603M1jfn-24" style="edgeStyle=orthogonalEdgeStyle;rounded=0;orthogonalLoop=1;jettySize=auto;html=1;exitX=1;exitY=0.25;exitDx=0;exitDy=0;entryX=0;entryY=0.25;entryDx=0;entryDy=0;" edge="1" parent="1" source="4h4NSP-yn3sb603M1jfn-3" target="4h4NSP-yn3sb603M1jfn-4">
          <mxGeometry relative="1" as="geometry" />
        </mxCell>
        <mxCell id="4h4NSP-yn3sb603M1jfn-96" value="prototype" style="edgeLabel;html=1;align=center;verticalAlign=middle;resizable=0;points=[];" vertex="1" connectable="0" parent="4h4NSP-yn3sb603M1jfn-24">
          <mxGeometry x="-0.2107" y="1" relative="1" as="geometry">
            <mxPoint x="23" y="-1" as="offset" />
          </mxGeometry>
        </mxCell>
        <mxCell id="4h4NSP-yn3sb603M1jfn-87" style="edgeStyle=orthogonalEdgeStyle;rounded=0;orthogonalLoop=1;jettySize=auto;html=1;exitX=0.5;exitY=1;exitDx=0;exitDy=0;entryX=0.75;entryY=1;entryDx=0;entryDy=0;" edge="1" parent="1" source="4h4NSP-yn3sb603M1jfn-3" target="4h4NSP-yn3sb603M1jfn-57">
          <mxGeometry relative="1" as="geometry">
            <Array as="points">
              <mxPoint x="285" y="162" />
              <mxPoint x="8" y="162" />
              <mxPoint x="8" y="541" />
              <mxPoint x="562" y="541" />
            </Array>
          </mxGeometry>
        </mxCell>
        <mxCell id="4h4NSP-yn3sb603M1jfn-102" value="__proto__" style="edgeLabel;html=1;align=center;verticalAlign=middle;resizable=0;points=[];" vertex="1" connectable="0" parent="4h4NSP-yn3sb603M1jfn-87">
          <mxGeometry x="0.2482" y="-3" relative="1" as="geometry">
            <mxPoint as="offset" />
          </mxGeometry>
        </mxCell>
        <mxCell id="4h4NSP-yn3sb603M1jfn-3" value="构造函数&lt;br&gt;Foo()" style="rounded=0;whiteSpace=wrap;html=1;" vertex="1" parent="1">
          <mxGeometry x="242" y="81" width="85" height="43" as="geometry" />
        </mxCell>
        <mxCell id="4h4NSP-yn3sb603M1jfn-84" style="edgeStyle=orthogonalEdgeStyle;rounded=0;orthogonalLoop=1;jettySize=auto;html=1;exitX=0.75;exitY=1;exitDx=0;exitDy=0;entryX=0.75;entryY=0;entryDx=0;entryDy=0;" edge="1" parent="1" source="4h4NSP-yn3sb603M1jfn-4" target="4h4NSP-yn3sb603M1jfn-36">
          <mxGeometry relative="1" as="geometry">
            <Array as="points">
              <mxPoint x="555" y="122" />
              <mxPoint x="555" y="183" />
            </Array>
          </mxGeometry>
        </mxCell>
        <mxCell id="4h4NSP-yn3sb603M1jfn-4" value="Foo.prototype" style="rounded=1;whiteSpace=wrap;html=1;" vertex="1" parent="1">
          <mxGeometry x="476" y="81" width="97" height="41" as="geometry" />
        </mxCell>
        <mxCell id="4h4NSP-yn3sb603M1jfn-6" value=". . . = new Foo()" style="text;html=1;align=center;verticalAlign=middle;resizable=0;points=[];autosize=1;strokeColor=none;fillColor=none;" vertex="1" parent="1">
          <mxGeometry x="5" y="67" width="102" height="26" as="geometry" />
        </mxCell>
        <mxCell id="4h4NSP-yn3sb603M1jfn-27" style="edgeStyle=orthogonalEdgeStyle;rounded=0;orthogonalLoop=1;jettySize=auto;html=1;exitX=0;exitY=0.75;exitDx=0;exitDy=0;entryX=0.918;entryY=0.721;entryDx=0;entryDy=0;entryPerimeter=0;" edge="1" parent="1" source="4h4NSP-yn3sb603M1jfn-4" target="4h4NSP-yn3sb603M1jfn-3">
          <mxGeometry relative="1" as="geometry" />
        </mxCell>
        <mxCell id="4h4NSP-yn3sb603M1jfn-97" value="constructor" style="edgeLabel;html=1;align=center;verticalAlign=middle;resizable=0;points=[];" vertex="1" connectable="0" parent="4h4NSP-yn3sb603M1jfn-27">
          <mxGeometry x="-0.27" y="2" relative="1" as="geometry">
            <mxPoint x="-5" as="offset" />
          </mxGeometry>
        </mxCell>
        <mxCell id="4h4NSP-yn3sb603M1jfn-47" style="edgeStyle=orthogonalEdgeStyle;rounded=0;orthogonalLoop=1;jettySize=auto;html=1;exitX=1;exitY=0.25;exitDx=0;exitDy=0;" edge="1" parent="1" source="4h4NSP-yn3sb603M1jfn-35">
          <mxGeometry relative="1" as="geometry">
            <mxPoint x="463" y="263" as="targetPoint" />
            <Array as="points">
              <mxPoint x="405" y="263" />
              <mxPoint x="405" y="264" />
            </Array>
          </mxGeometry>
        </mxCell>
        <mxCell id="4h4NSP-yn3sb603M1jfn-92" value="prototype" style="edgeLabel;html=1;align=center;verticalAlign=middle;resizable=0;points=[];" vertex="1" connectable="0" parent="4h4NSP-yn3sb603M1jfn-47">
          <mxGeometry x="-0.3274" y="3" relative="1" as="geometry">
            <mxPoint x="20" as="offset" />
          </mxGeometry>
        </mxCell>
        <mxCell id="4h4NSP-yn3sb603M1jfn-35" value="function&amp;nbsp;Object()" style="rounded=0;whiteSpace=wrap;html=1;" vertex="1" parent="1">
          <mxGeometry x="232.63" y="250" width="114.37" height="53" as="geometry" />
        </mxCell>
        <mxCell id="4h4NSP-yn3sb603M1jfn-45" style="edgeStyle=orthogonalEdgeStyle;rounded=0;orthogonalLoop=1;jettySize=auto;html=1;exitX=0;exitY=0.75;exitDx=0;exitDy=0;entryX=1;entryY=0.75;entryDx=0;entryDy=0;" edge="1" parent="1" source="4h4NSP-yn3sb603M1jfn-36" target="4h4NSP-yn3sb603M1jfn-35">
          <mxGeometry relative="1" as="geometry" />
        </mxCell>
        <mxCell id="4h4NSP-yn3sb603M1jfn-93" value="constructor" style="edgeLabel;html=1;align=center;verticalAlign=middle;resizable=0;points=[];" vertex="1" connectable="0" parent="4h4NSP-yn3sb603M1jfn-45">
          <mxGeometry x="0.104" y="-1" relative="1" as="geometry">
            <mxPoint x="9" as="offset" />
          </mxGeometry>
        </mxCell>
        <mxCell id="4h4NSP-yn3sb603M1jfn-36" value="Object.prototype" style="rounded=1;whiteSpace=wrap;html=1;" vertex="1" parent="1">
          <mxGeometry x="464.5" y="244" width="120" height="60" as="geometry" />
        </mxCell>
        <mxCell id="4h4NSP-yn3sb603M1jfn-48" value="o2" style="ellipse;whiteSpace=wrap;html=1;" vertex="1" parent="1">
          <mxGeometry x="69" y="250" width="41" height="28" as="geometry" />
        </mxCell>
        <mxCell id="4h4NSP-yn3sb603M1jfn-53" style="edgeStyle=orthogonalEdgeStyle;rounded=0;orthogonalLoop=1;jettySize=auto;html=1;exitX=0.5;exitY=0;exitDx=0;exitDy=0;entryX=0.25;entryY=0;entryDx=0;entryDy=0;" edge="1" parent="1" source="4h4NSP-yn3sb603M1jfn-49" target="4h4NSP-yn3sb603M1jfn-36">
          <mxGeometry relative="1" as="geometry" />
        </mxCell>
        <mxCell id="4h4NSP-yn3sb603M1jfn-103" value="__proto__" style="edgeLabel;html=1;align=center;verticalAlign=middle;resizable=0;points=[];" vertex="1" connectable="0" parent="4h4NSP-yn3sb603M1jfn-53">
          <mxGeometry x="0.0944" y="4" relative="1" as="geometry">
            <mxPoint x="5" y="3" as="offset" />
          </mxGeometry>
        </mxCell>
        <mxCell id="4h4NSP-yn3sb603M1jfn-49" value="o1" style="ellipse;whiteSpace=wrap;html=1;" vertex="1" parent="1">
          <mxGeometry x="99" y="241" width="40" height="30" as="geometry" />
        </mxCell>
        <mxCell id="4h4NSP-yn3sb603M1jfn-51" value=". . . = new Object()" style="text;html=1;align=center;verticalAlign=middle;resizable=0;points=[];autosize=1;strokeColor=none;fillColor=none;" vertex="1" parent="1">
          <mxGeometry x="11" y="199" width="116" height="26" as="geometry" />
        </mxCell>
        <mxCell id="4h4NSP-yn3sb603M1jfn-65" style="edgeStyle=orthogonalEdgeStyle;rounded=0;orthogonalLoop=1;jettySize=auto;html=1;exitX=0;exitY=0.75;exitDx=0;exitDy=0;entryX=1;entryY=0.75;entryDx=0;entryDy=0;" edge="1" parent="1" source="4h4NSP-yn3sb603M1jfn-57" target="4h4NSP-yn3sb603M1jfn-58">
          <mxGeometry relative="1" as="geometry">
            <Array as="points">
              <mxPoint x="472" y="464" />
            </Array>
          </mxGeometry>
        </mxCell>
        <mxCell id="4h4NSP-yn3sb603M1jfn-90" value="constructor" style="edgeLabel;html=1;align=center;verticalAlign=middle;resizable=0;points=[];" vertex="1" connectable="0" parent="4h4NSP-yn3sb603M1jfn-65">
          <mxGeometry x="0.2201" relative="1" as="geometry">
            <mxPoint x="11" y="-2" as="offset" />
          </mxGeometry>
        </mxCell>
        <mxCell id="4h4NSP-yn3sb603M1jfn-66" style="edgeStyle=orthogonalEdgeStyle;rounded=0;orthogonalLoop=1;jettySize=auto;html=1;exitX=0.75;exitY=0;exitDx=0;exitDy=0;entryX=0.75;entryY=1;entryDx=0;entryDy=0;" edge="1" parent="1" source="4h4NSP-yn3sb603M1jfn-57" target="4h4NSP-yn3sb603M1jfn-36">
          <mxGeometry relative="1" as="geometry">
            <Array as="points">
              <mxPoint x="555" y="417" />
              <mxPoint x="555" y="361" />
            </Array>
          </mxGeometry>
        </mxCell>
        <mxCell id="4h4NSP-yn3sb603M1jfn-99" value="__proto__" style="edgeLabel;html=1;align=center;verticalAlign=middle;resizable=0;points=[];" vertex="1" connectable="0" parent="4h4NSP-yn3sb603M1jfn-66">
          <mxGeometry x="0.1166" relative="1" as="geometry">
            <mxPoint as="offset" />
          </mxGeometry>
        </mxCell>
        <mxCell id="4h4NSP-yn3sb603M1jfn-68" style="edgeStyle=orthogonalEdgeStyle;rounded=0;orthogonalLoop=1;jettySize=auto;html=1;exitX=0.25;exitY=0;exitDx=0;exitDy=0;entryX=0.5;entryY=1;entryDx=0;entryDy=0;" edge="1" parent="1" source="4h4NSP-yn3sb603M1jfn-57" target="4h4NSP-yn3sb603M1jfn-35">
          <mxGeometry relative="1" as="geometry">
            <Array as="points">
              <mxPoint x="489" y="417" />
              <mxPoint x="489" y="360" />
              <mxPoint x="290" y="360" />
            </Array>
          </mxGeometry>
        </mxCell>
        <mxCell id="4h4NSP-yn3sb603M1jfn-100" value="__proto__" style="edgeLabel;html=1;align=center;verticalAlign=middle;resizable=0;points=[];" vertex="1" connectable="0" parent="4h4NSP-yn3sb603M1jfn-68">
          <mxGeometry x="0.1097" relative="1" as="geometry">
            <mxPoint as="offset" />
          </mxGeometry>
        </mxCell>
        <mxCell id="4h4NSP-yn3sb603M1jfn-75" style="edgeStyle=orthogonalEdgeStyle;rounded=0;orthogonalLoop=1;jettySize=auto;html=1;exitX=0.5;exitY=1;exitDx=0;exitDy=0;entryX=0.25;entryY=1;entryDx=0;entryDy=0;" edge="1" parent="1" source="4h4NSP-yn3sb603M1jfn-57" target="4h4NSP-yn3sb603M1jfn-58">
          <mxGeometry relative="1" as="geometry">
            <Array as="points">
              <mxPoint x="532" y="515" />
              <mxPoint x="255" y="515" />
            </Array>
          </mxGeometry>
        </mxCell>
        <mxCell id="4h4NSP-yn3sb603M1jfn-101" value="__proto__" style="edgeLabel;html=1;align=center;verticalAlign=middle;resizable=0;points=[];" vertex="1" connectable="0" parent="4h4NSP-yn3sb603M1jfn-75">
          <mxGeometry x="-0.1465" relative="1" as="geometry">
            <mxPoint as="offset" />
          </mxGeometry>
        </mxCell>
        <mxCell id="4h4NSP-yn3sb603M1jfn-57" value="Function.prototype" style="rounded=1;whiteSpace=wrap;html=1;" vertex="1" parent="1">
          <mxGeometry x="472" y="417" width="120" height="60" as="geometry" />
        </mxCell>
        <mxCell id="4h4NSP-yn3sb603M1jfn-64" style="edgeStyle=orthogonalEdgeStyle;rounded=0;orthogonalLoop=1;jettySize=auto;html=1;exitX=1;exitY=0.25;exitDx=0;exitDy=0;entryX=0;entryY=0.25;entryDx=0;entryDy=0;" edge="1" parent="1" source="4h4NSP-yn3sb603M1jfn-58" target="4h4NSP-yn3sb603M1jfn-57">
          <mxGeometry relative="1" as="geometry">
            <Array as="points">
              <mxPoint x="472" y="434" />
            </Array>
          </mxGeometry>
        </mxCell>
        <mxCell id="4h4NSP-yn3sb603M1jfn-91" value="prototype" style="edgeLabel;html=1;align=center;verticalAlign=middle;resizable=0;points=[];" vertex="1" connectable="0" parent="4h4NSP-yn3sb603M1jfn-64">
          <mxGeometry x="-0.3127" y="-2" relative="1" as="geometry">
            <mxPoint x="16" y="-6" as="offset" />
          </mxGeometry>
        </mxCell>
        <mxCell id="4h4NSP-yn3sb603M1jfn-58" value="function Function()" style="rounded=0;whiteSpace=wrap;html=1;" vertex="1" parent="1">
          <mxGeometry x="224.5" y="419" width="120" height="60" as="geometry" />
        </mxCell>
        <mxCell id="4h4NSP-yn3sb603M1jfn-77" value="null" style="text;html=1;align=center;verticalAlign=middle;resizable=0;points=[];autosize=1;strokeColor=none;fillColor=none;" vertex="1" parent="1">
          <mxGeometry x="671" y="213" width="37" height="26" as="geometry" />
        </mxCell>
        <mxCell id="4h4NSP-yn3sb603M1jfn-80" style="edgeStyle=orthogonalEdgeStyle;rounded=0;orthogonalLoop=1;jettySize=auto;html=1;exitX=1;exitY=0.5;exitDx=0;exitDy=0;entryX=0.703;entryY=0.962;entryDx=0;entryDy=0;entryPerimeter=0;" edge="1" parent="1" source="4h4NSP-yn3sb603M1jfn-36" target="4h4NSP-yn3sb603M1jfn-77">
          <mxGeometry relative="1" as="geometry" />
        </mxCell>
        <mxCell id="4h4NSP-yn3sb603M1jfn-98" value="__proto__" style="edgeLabel;html=1;align=center;verticalAlign=middle;resizable=0;points=[];" vertex="1" connectable="0" parent="4h4NSP-yn3sb603M1jfn-80">
          <mxGeometry x="-0.2785" relative="1" as="geometry">
            <mxPoint x="1" as="offset" />
          </mxGeometry>
        </mxCell>
        <mxCell id="4h4NSP-yn3sb603M1jfn-85" value="__proto__" style="text;html=1;align=center;verticalAlign=middle;resizable=0;points=[];autosize=1;strokeColor=none;fillColor=none;" vertex="1" parent="1">
          <mxGeometry x="537" y="141" width="72" height="26" as="geometry" />
        </mxCell>
        <mxCell id="4h4NSP-yn3sb603M1jfn-105" value="&lt;font style=&quot;font-size: 14px;&quot;&gt;&lt;b&gt;Functions&lt;/b&gt;&lt;/font&gt;" style="text;html=1;align=center;verticalAlign=middle;resizable=0;points=[];autosize=1;strokeColor=none;fillColor=none;" vertex="1" parent="1">
          <mxGeometry x="242" y="-11" width="85" height="29" as="geometry" />
        </mxCell>
        <mxCell id="4h4NSP-yn3sb603M1jfn-106" value="&lt;b&gt;&lt;font style=&quot;font-size: 14px;&quot;&gt;Prototype&lt;br&gt;(实例）&lt;/font&gt;&lt;/b&gt;" style="text;html=1;align=center;verticalAlign=middle;resizable=0;points=[];autosize=1;strokeColor=none;fillColor=none;" vertex="1" parent="1">
          <mxGeometry x="458" y="-13" width="83" height="46" as="geometry" />
        </mxCell>
      </root>
    </mxGraphModel>
  </diagram>
</mxfile>
